<svg width="26" height="26" viewBox="0 0 26 26" fill="none" xmlns="http://www.w3.org/2000/svg">
<path d="M23.8956 7.52373C23.7662 7.04276 23.5126 6.60423 23.1604 6.25203C22.8082 5.89983 22.3697 5.64631 21.8888 5.51685C20.1175 5.03748 13 5.03748 13 5.03748C13 5.03748 5.8825 5.03748 4.11125 5.51685C3.63028 5.64631 3.19175 5.89983 2.83955 6.25203C2.48735 6.60423 2.23384 7.04276 2.10438 7.52373C1.77364 9.33013 1.61315 11.1636 1.625 13C1.61315 14.8364 1.77364 16.6698 2.10438 18.4762C2.23384 18.9572 2.48735 19.3957 2.83955 19.7479C3.19175 20.1001 3.63028 20.3536 4.11125 20.4831C5.8825 20.9625 13 20.9625 13 20.9625C13 20.9625 20.1175 20.9625 21.8888 20.4831C22.3697 20.3536 22.8082 20.1001 23.1604 19.7479C23.5126 19.3957 23.7662 18.9572 23.8956 18.4762C24.2264 16.6698 24.3869 14.8364 24.375 13C24.3869 11.1636 24.2264 9.33013 23.8956 7.52373ZM10.725 16.4125V9.58747L16.6319 13L10.725 16.4125Z" fill="white"/>
</svg>
